<?xml version="1.0" standalone="no"?>
<!DOCTYPE svg PUBLIC "-//W3C//DTD SVG 20010904//EN"
 "http://www.w3.org/TR/2001/REC-SVG-20010904/DTD/svg10.dtd">
<svg version="1.0" xmlns="http://www.w3.org/2000/svg"
 width="600.000000pt" height="600.000000pt" viewBox="0 0 600.000000 600.000000"
 preserveAspectRatio="xMidYMid meet">
<metadata>
Created by potrace 1.14, written by Peter Selinger 2001-2017
</metadata>
<g transform="translate(0.000000,600.000000) scale(0.100000,-0.100000)"
fill="#000000" stroke="none">
<path d="M792 3574 c-212 -57 -370 -217 -426 -434 -22 -83 -15 -239 14 -320
23 -64 88 -175 128 -216 72 -75 173 -137 267 -164 92 -26 96 -23 94 67 -2 69
-4 75 -26 84 -13 5 -35 9 -49 9 -21 0 -24 5 -24 35 l0 35 121 0 c144 0 178 12
208 72 22 44 19 80 -8 118 -31 43 -57 50 -193 50 l-128 0 0 64 c0 68 7 79 52
90 15 3 30 15 33 26 7 23 3 22 107 24 84 3 118 18 141 64 23 44 6 105 -36 132
-13 9 -53 15 -102 17 -44 1 -83 2 -87 2 -4 1 -9 58 -10 128 -2 73 -7 127 -13
129 -5 1 -34 -4 -63 -12z m33 -251 l0 -206 -42 -18 c-22 -9 -44 -23 -49 -30
-11 -18 -8 -489 3 -500 5 -5 24 -11 43 -13 19 -2 38 -4 41 -5 4 0 6 -18 4 -38
-2 -33 -6 -38 -26 -35 -12 1 -36 9 -52 17 -17 8 -34 15 -39 15 -20 0 -117 71
-167 121 -56 58 -124 184 -137 254 -20 112 -7 244 33 331 64 142 198 264 332
304 59 18 57 28 56 -197z m231 -67 c19 -27 18 -48 -6 -74 -18 -19 -31 -22
-100 -22 l-80 0 0 59 c0 33 4 61 10 63 5 2 44 1 86 -2 60 -4 79 -9 90 -24z
m-31 -399 c49 -26 58 -71 21 -114 -23 -27 -25 -27 -147 -28 l-124 0 -3 78 -3
77 118 -1 c65 -1 127 -6 138 -12z"/>
<path d="M927 3583 c-9 -16 1 -145 12 -156 6 -6 37 -12 67 -14 64 -2 108 -20
149 -60 92 -92 69 -242 -48 -302 -39 -20 -59 -23 -171 -23 -114 0 -127 -2
-137 -19 -5 -10 -6 -19 -2 -20 4 0 67 -2 138 -3 139 -4 164 -9 212 -50 92 -77
84 -231 -16 -300 -42 -29 -74 -38 -138 -38 -23 0 -47 -6 -53 -13 -10 -12 -15
-68 -11 -139 l1 -29 74 6 c135 12 247 66 351 171 196 198 226 504 72 736 -76
114 -218 214 -348 245 -69 16 -145 20 -152 8z m193 -68 c160 -54 299 -208 344
-380 21 -81 15 -230 -12 -307 -28 -78 -85 -163 -149 -224 -52 -50 -154 -110
-201 -119 -12 -2 -26 -6 -31 -9 -17 -11 -95 -16 -101 -7 -3 6 -4 28 -2 50 l4
39 54 1 c215 2 311 278 144 412 l-40 32 40 35 c168 143 77 405 -144 416 -50 3
-51 4 -54 35 -6 54 0 60 55 50 26 -5 68 -16 93 -24z"/>
<path d="M1817 3236 c21 -10 33 -23 36 -43 5 -23 3 -360 -1 -401 -1 -7 -17
-19 -34 -27 -30 -13 -19 -15 134 -14 151 1 172 3 210 22 57 29 80 73 66 128
-12 45 -64 94 -111 105 l-29 6 39 18 c78 35 98 113 44 167 -41 42 -84 51 -243
52 -130 1 -140 0 -111 -13z m260 -27 c25 -15 43 -50 43 -84 0 -65 -37 -95
-126 -103 l-61 -5 -2 108 -1 108 63 -5 c35 -3 73 -11 84 -19z m11 -234 c35
-21 51 -47 56 -91 5 -39 -25 -91 -60 -104 -40 -16 -120 -12 -135 6 -8 9 -14
54 -17 116 l-4 101 65 -5 c36 -3 78 -14 95 -23z"/>
<path d="M4296 3236 c17 -8 33 -20 36 -27 4 -12 4 -381 0 -417 -1 -7 -17 -19
-34 -27 -30 -13 -19 -15 133 -14 138 1 173 4 207 19 57 26 76 60 73 129 -1 31
-71 97 -112 106 l-31 7 40 18 c106 48 92 172 -24 208 -18 5 -98 10 -176 11
-129 1 -140 -1 -112 -13z m223 -12 c79 -16 107 -104 53 -165 -24 -27 -36 -32
-94 -36 l-66 -6 0 107 0 106 38 0 c21 0 51 -3 69 -6z m50 -250 c62 -36 75
-123 26 -174 -20 -19 -37 -25 -88 -28 -85 -5 -91 3 -94 131 l-2 100 63 -5 c35
-3 78 -14 95 -24z"/>
<path d="M3085 3117 c-22 -24 -51 -50 -65 -59 l-25 -17 37 0 36 -1 4 -126 c3
-124 3 -126 31 -150 18 -15 41 -24 63 -24 41 0 104 24 104 40 0 7 -9 5 -22 -4
-29 -21 -61 -20 -87 2 -19 15 -21 28 -22 127 0 61 0 116 0 123 1 8 20 12 61
12 33 0 60 4 60 10 0 6 -27 10 -60 10 l-60 0 -1 33 c-1 17 -1 40 0 50 3 27
-11 20 -54 -26z"/>
<path d="M2355 3056 c-27 -15 -54 -48 -55 -65 0 -10 9 -6 28 11 69 66 151 39
152 -49 0 -13 -3 -22 -7 -21 -20 6 -155 -47 -168 -66 -25 -34 -18 -71 17 -101
27 -23 39 -26 75 -22 24 2 52 12 61 20 15 14 19 14 41 -4 39 -32 89 -20 104
24 8 22 -2 22 -18 0 -24 -33 -35 -4 -35 98 0 113 -13 149 -61 174 -33 17 -104
18 -134 1z m125 -195 c0 -64 -9 -77 -57 -87 -38 -8 -63 16 -63 61 0 30 5 36
53 59 28 14 55 25 60 26 4 0 7 -26 7 -59z"/>
<path d="M2650 3059 c-20 -6 -21 -7 -5 -8 45 -3 50 -14 52 -133 2 -135 0 -144
-35 -157 -21 -7 -4 -9 73 -9 79 0 93 2 68 9 -18 5 -34 13 -34 17 -1 4 -2 50
-3 102 -1 78 2 98 16 112 26 26 61 31 102 14 36 -15 36 -15 50 13 13 25 13 28
-5 39 -30 19 -62 14 -112 -18 -26 -16 -50 -30 -52 -30 -2 0 -3 12 -2 28 2 26
0 27 -43 27 -25 1 -56 -2 -70 -6z"/>
<path d="M3435 3063 c-31 -8 -83 -51 -99 -81 -7 -15 -16 -45 -19 -67 -17 -124
142 -217 265 -155 24 12 50 30 56 41 16 26 6 24 -29 -6 -85 -71 -201 -18 -219
99 l-7 46 129 0 c141 0 146 2 111 61 -31 52 -115 79 -188 62z m110 -38 c14
-13 25 -33 25 -45 0 -19 -6 -20 -94 -20 -85 0 -94 2 -89 18 18 68 110 96 158
47z"/>
<path d="M3702 3058 c-15 -6 -15 -7 3 -8 11 -2 23 -2 27 -1 18 2 26 -43 24
-151 -1 -118 -5 -132 -41 -141 -11 -3 23 -5 75 -5 72 0 89 2 69 9 -32 12 -35
26 -34 139 l0 84 34 20 c32 19 37 19 78 4 l44 -16 14 27 c12 24 12 28 -6 39
-30 19 -62 14 -112 -18 -48 -30 -54 -30 -51 8 1 21 -2 22 -52 20 -30 -2 -62
-6 -72 -10z"/>
<path d="M4885 3058 c-104 -37 -144 -177 -72 -257 33 -36 101 -63 155 -60 52
3 85 16 120 49 34 32 18 37 -18 6 -83 -69 -182 -33 -215 79 -8 26 -12 51 -9
56 3 5 61 9 130 9 137 0 141 2 107 61 -33 56 -125 82 -198 57z m113 -28 c22
-14 32 -27 32 -45 0 -25 0 -25 -95 -25 -103 0 -103 1 -67 57 23 37 81 43 130
13z"/>
<path d="M5286 3060 c-63 -19 -108 -86 -108 -162 0 -55 16 -85 69 -125 32 -25
45 -28 108 -28 63 0 77 4 113 29 23 16 39 33 36 38 -3 5 -16 1 -28 -10 -83
-76 -192 -40 -221 73 -7 28 -11 53 -8 58 2 4 60 7 129 7 137 0 141 2 107 61
-33 55 -121 81 -197 59z m119 -35 c14 -13 25 -33 25 -45 0 -19 -6 -20 -88 -20
-49 0 -92 3 -95 6 -10 10 24 61 47 73 39 18 85 13 111 -14z"/>
</g>
</svg>
